<svg width="14" height="14" viewBox="0 0 14 14" fill="none" xmlns="http://www.w3.org/2000/svg">
<mask id="mask0_3_915" style="mask-type:alpha" maskUnits="userSpaceOnUse" x="0" y="0" width="14" height="14">
<rect y="14" width="14" height="14" transform="rotate(-90 0 14)" fill="#D9D9D9"/>
</mask>
<g mask="url(#mask0_3_915)">
<path d="M12.7625 5.3871L7.44327 10.8226C7.37995 10.8871 7.31135 10.9327 7.23747 10.9594C7.16359 10.9865 7.08443 11 7 11C6.91557 11 6.83641 10.9865 6.76253 10.9594C6.68865 10.9327 6.62005 10.8871 6.55673 10.8226L1.22164 5.3871C1.07388 5.23656 1 5.04839 1 4.82258C1 4.59677 1.07916 4.40323 1.23747 4.24194C1.39578 4.08065 1.58047 4 1.79156 4C2.00264 4 2.18734 4.08065 2.34565 4.24194L7 8.98387L11.6544 4.24194C11.8021 4.0914 11.9841 4.01613 12.2002 4.01613C12.4168 4.01613 12.6042 4.09677 12.7625 4.25806C12.9208 4.41935 13 4.60753 13 4.82258C13 5.03763 12.9208 5.22581 12.7625 5.3871Z" fill="#007AFF"/>
</g>
</svg>